<?xml version="1.0" encoding="UTF-8" standalone="no"?>
<!-- Created with Inkscape (http://www.inkscape.org/) -->

<svg
   width="48"
   height="48"
   viewBox="0 0 48 48"
   version="1.1"
   id="svg1"
   inkscape:version="1.4 (1:1.4+202410161351+e7c3feb100)"
   sodipodi:docname="rt.svg"
   xmlns:inkscape="http://www.inkscape.org/namespaces/inkscape"
   xmlns:sodipodi="http://sodipodi.sourceforge.net/DTD/sodipodi-0.dtd"
   xmlns="http://www.w3.org/2000/svg"
   xmlns:svg="http://www.w3.org/2000/svg">
  <sodipodi:namedview
     id="namedview1"
     pagecolor="#ffffff"
     bordercolor="#000000"
     borderopacity="0.25"
     inkscape:showpageshadow="2"
     inkscape:pageopacity="0.0"
     inkscape:pagecheckerboard="0"
     inkscape:deskcolor="#d1d1d1"
     inkscape:document-units="px"
     inkscape:lockguides="false"
     inkscape:zoom="11.829307"
     inkscape:cx="23.289614"
     inkscape:cy="24.219508"
     inkscape:window-width="1854"
     inkscape:window-height="1011"
     inkscape:window-x="1986"
     inkscape:window-y="32"
     inkscape:window-maximized="1"
     inkscape:current-layer="layer1" />
  <defs
     id="defs1" />
  <g
     inkscape:label="Layer 1"
     inkscape:groupmode="layer"
     id="layer1">
    <path
       id="text5"
       style="-inkscape-font-specification:Montserrat;fill:#333333;stroke-width:10.4979"
       d="M 26.449219 2.1015625 L 26.449219 8.9707031 L 22.28125 8.9707031 L 22.28125 17.734375 L 26.451172 17.734375 L 26.451172 33.953125 C 26.451172 37.316244 27.443289 40.359387 29.587891 42.503906 C 31.74022 44.6563 34.803084 45.640625 38.199219 45.640625 C 39.664165 45.640625 41.119279 45.410594 42.505859 44.984375 C 44.016374 44.530864 45.40718 43.798854 46.544922 42.769531 L 48 41.4375 L 44.144531 33.583984 L 41.582031 35.820312 C 40.852843 36.455438 40.024021 36.783203 38.669922 36.783203 C 37.453968 36.783203 36.969866 36.522734 36.580078 36.126953 C 36.218321 35.729081 35.902344 35.075961 35.902344 33.707031 L 35.902344 17.734375 L 45.396484 17.734375 L 45.396484 8.9804688 L 35.902344 8.9804688 L 35.902344 2.1113281 L 26.449219 2.1015625 z M 0 8.9746094 L 0 45.328125 L 9.4726562 45.328125 L 9.4726562 26.833984 C 9.4726562 23.602403 10.242527 21.533809 11.542969 20.150391 L 11.564453 20.128906 C 12.889493 18.691109 13.851041 17.682582 16.556641 17.671875 C 17.57636 17.669241 18.137834 17.663657 18.712891 17.669922 L 18.712891 8.984375 C 18.264787 8.9857621 17.818381 8.9921875 17.238281 8.9921875 C 13.840254 8.9921875 11.407767 9.7069011 9.2890625 11.630859 L 9.2890625 8.9746094 L 0 8.9746094 z " />
  </g>
</svg>
