<?xml version="1.0" encoding="UTF-8" standalone="no"?>
<!-- Created with Inkscape (http://www.inkscape.org/) -->

<svg
   width="3.7041667mm"
   height="8.0044374mm"
   viewBox="0 0 3.7041667 8.0044374"
   version="1.1"
   id="svg1"
   xml:space="preserve"
   xmlns="http://www.w3.org/2000/svg"
   xmlns:svg="http://www.w3.org/2000/svg"><defs
     id="defs1" /><g
     id="layer1"
     transform="translate(-151.60625,-151.53933)"><path
       id="path1"
       d="m 153.45833,154.25209 c -0.51153,0 -0.94788,0.181 -1.30948,0.5426 -0.3616,0.3616 -0.5426,0.79795 -0.5426,1.30948 v 1.5875 c 0,0.51153 0.181,0.94788 0.5426,1.30948 0.3616,0.3616 0.79795,0.5426 1.30948,0.5426 0.51153,0 0.94788,-0.181 1.30948,-0.5426 0.3616,-0.3616 0.5426,-0.79795 0.5426,-1.30948 v -1.5875 c 0,-0.51153 -0.181,-0.94788 -0.5426,-1.30948 -0.3616,-0.3616 -0.79795,-0.5426 -1.30948,-0.5426 z m -0.26458,0.55552 c 0.16926,-0.0402 0.35636,-0.0381 0.52916,0 0.17281,0.0381 0.55694,0.21377 0.75758,0.4563 0.20064,0.24254 0.30075,0.52276 0.30075,0.84026 v 0.52917 1.05833 c 0,0.36601 -0.12908,0.67789 -0.38705,0.93586 -0.25797,0.25797 -0.56985,0.38706 -0.93586,0.38706 -0.36601,0 -0.67789,-0.12909 -0.93586,-0.38706 -0.25797,-0.25797 -0.38706,-0.56985 -0.38706,-0.93586 v -1.05833 -0.52917 c 0,-0.3175 0.10012,-0.59772 0.30076,-0.84026 0.20064,-0.24253 0.58831,-0.41611 0.75758,-0.4563 z"
       style="fill:#5f6368;fill-opacity:1;stroke-width:0.00661458" /><g
       id="path9"><path
         style="stroke-linecap:round;stroke-linejoin:round"
         d="M 153.45833,156.26283 V 155.6297"
         id="path4" /><path
         style="fill:#5f6368;stroke-linecap:round;stroke-linejoin:round"
         d="m 153.45898,155.37891 a 0.25135401,0.25135401 0 0 0 -0.25195,0.25 v 0.63476 a 0.25135401,0.25135401 0 0 0 0.25195,0.25 0.25135401,0.25135401 0 0 0 0.25,-0.25 v -0.63476 a 0.25135401,0.25135401 0 0 0 -0.25,-0.25 z"
         id="path5" /></g><path
       style="fill:#5f6368;stroke-linecap:round;stroke-linejoin:round"
       d="m 154.34114,154.0797 a 0.25150001,0.25150001 0 0 0 0.17773,-0.0742 0.25150001,0.25150001 0 0 0 0,-0.35547 l -0.88281,-0.88281 a 0.25152516,0.25152516 0 0 0 -0.35547,0 l -0.88086,0.88281 a 0.25150001,0.25150001 0 0 0 0,0.35547 0.25150001,0.25150001 0 0 0 0.35547,0 l 0.70313,-0.70508 0.70507,0.70508 a 0.25150001,0.25150001 0 0 0 0.17774,0.0742 z"
       id="path3-0" /><path
       style="fill:#5f6368;stroke-linecap:round;stroke-linejoin:round"
       d="m 154.34114,152.92345 a 0.25150001,0.25150001 0 0 0 0.17773,-0.0723 0.25150001,0.25150001 0 0 0 0,-0.35547 l -0.88281,-0.88281 a 0.25152516,0.25152516 0 0 0 -0.35547,0 l -0.88086,0.88281 a 0.25150001,0.25150001 0 0 0 0,0.35547 0.25150001,0.25150001 0 0 0 0.35547,0 l 0.70313,-0.70508 0.70507,0.70508 a 0.25150001,0.25150001 0 0 0 0.17774,0.0723 z"
       id="path3-7-6" /></g></svg>
